{"title":"The Hangover Part 3 2013 TS Xvid Mp3-SUFFiCE","uid":8529264,"size":1341643213,"categoryP":"video","categoryS":"movies","magnet":"?xt=urn:btih:6a75e60e6785314cb27e9b4c1b779e3c00e1e759&amp;dn=The+Hangover+Part+3+2013+TS+Xvid+Mp3-SUFFiCE&amp;tr=udp%3A%2F%2Ftracker.openbittorrent.com%3A80&amp;tr=udp%3A%2F%2Fopen.demonii.com%3A1337&amp;tr=udp%3A%2F%2Ftracker.coppersurfer.tk%3A6969&amp;tr=udp%3A%2F%2Fexodus.desync.com%3A6969","seeders":1,"leechers":0,"uploader":"R0thschild","files":4,"time":1370103679,"description":"              ***********************************************\n\n                PublicHash - Largest Bittorrent Community\n      \n                         &lt;a href=&quot; http://publichash.com/&quot; rel=&quot;nofollow&quot; target=&quot;_NEW&quot;&gt; http://publichash.com/&lt;/a&gt;\n    \n              ***********************************************\nGeneral\nComplete name : The Hangover Part 3 2013 TS Xvid Mp3-SUFFiCE.avi\nSources : A FRIEND\nFormat : AVI\nFormat/Info : Audio Video Interleave\nFile size : 1.22 GiB\nDuration : 1h 34mn\nOverall bit rate : 1 833 Kbps\nWriting application : VirtualDubMod 1.5.10.2 (build 2540/release)\nWriting library : VirtualDubMod build 2540/release\n\nVideo\nID : 0\nFormat : MPEG-4 Visual\nFormat profile : Advanced Simple@L5\nFormat settings, BVOP : 2\nFormat settings, QPel : No\nFormat settings, GMC : No warppoints\nFormat settings, Matrix : Default (H.263)\nMuxing mode : Packed bitstream\nCodec ID : XVID\nCodec ID/Hint : XviD\nDuration : 1h 34mn\nBit rate : 1 695 Kbps\nWidth : 720 pixels\nHeight : 274 pixels\nDisplay aspect ratio : 2.628\nFrame rate : 25.857 fps\nColor space : YUV\nChroma subsampling : 4:2:0\nBit depth : 8 bits\nScan type : Progressive\nCompression mode : Lossy\nBits/(Pixel*Frame) : 0.332\nStream size : 1.12 GiB (92%)\nWriting library : XviD 64\n\nAudio\nID : 1\nFormat : MPEG Audio\nFormat version : Version 1\nFormat profile : Layer 3\nCodec ID : 55\nCodec ID/Hint : MP3\nDuration : 1h 34mn\nBit rate mode : Constant\nBit rate : 128 Kbps\nChannel(s) : 2 channels\nSampling rate : 44.1 KHz\nCompression mode : Lossy\nStream size : 86.9 MiB (7%)\nAlignment : Split accross interleaves\nInterleave, duration : 39 ms (1.00 video frame)\nInterleave, preload duration : 500 ms\nWriting library : LAME3.82\n &lt;a href=&quot;\nhttp://www.imdb.com/title/tt1951261/&quot; rel=&quot;nofollow&quot; target=&quot;_NEW&quot;&gt;\nhttp://www.imdb.com/title/tt1951261/&lt;/a&gt;\n\nGallery: &lt;a href=&quot;\nhttp://imgsure.com/?g=718935&quot; rel=&quot;nofollow&quot; target=&quot;_NEW&quot;&gt;\nhttp://imgsure.com/?g=718935&lt;/a&gt;","torrent":{"xt":"urn:btih:6a75e60e6785314cb27e9b4c1b779e3c00e1e759","amp;dn":"The+Hangover+Part+3+2013+TS+Xvid+Mp3-SUFFiCE","amp;tr":["udp%3A%2F%2Ftracker.openbittorrent.com%3A80","udp%3A%2F%2Fopen.demonii.com%3A1337","udp%3A%2F%2Ftracker.coppersurfer.tk%3A6969","udp%3A%2F%2Fexodus.desync.com%3A6969"],"infoHash":"6a75e60e6785314cb27e9b4c1b779e3c00e1e759","infoHashBuffer":{"type":"Buffer","data":[106,117,230,14,103,133,49,76,178,126,155,76,27,119,158,60,0,225,231,89]},"announce":[],"urlList":[]}}